<svg aria-hidden="true" style="position: absolute; width: 0; height: 0; overflow: hidden;" version="1.1" xmlns="http://www.w3.org/2000/svg" xmlns:xlink="http://www.w3.org/1999/xlink">
<defs>
<symbol id="icon-creative-commons-noderivs" viewBox="0 0 20 20">
<title>creative-commons-noderivs</title>
<path d="M9.988 0.4c-2.659 0-4.91 0.928-6.752 2.784-1.891 1.92-2.835 4.192-2.835 6.816s0.945 4.88 2.835 6.768c1.89 1.888 4.141 2.832 6.752 2.832 2.643 0 4.934-0.952 6.873-2.856 1.826-1.808 2.74-4.056 2.74-6.744s-0.929-4.961-2.788-6.816c-1.859-1.856-4.133-2.784-6.825-2.784zM10.012 2.127c2.179 0 4.029 0.768 5.551 2.304 1.538 1.52 2.307 3.376 2.307 5.568 0 2.208-0.753 4.040-2.259 5.496-1.586 1.568-3.452 2.351-5.599 2.351s-3.997-0.776-5.551-2.328c-1.554-1.552-2.331-3.392-2.331-5.519 0-2.129 0.785-3.984 2.355-5.568 1.506-1.536 3.348-2.304 5.527-2.304z"></path>
<path d="M13.627 7.725h-6.978v1.653h6.978v-1.653zM13.627 10.81h-6.978v1.653h6.978v-1.653z"></path>
</symbol>
<symbol id="icon-chevron-with-circle-down" viewBox="0 0 20 20">
<title>chevron-with-circle-down</title>
<path d="M12.505 8.698l-2.505 2.302-2.506-2.302c-0.198-0.196-0.518-0.196-0.718 0-0.197 0.196-0.197 0.515 0 0.71l2.864 2.807c0.199 0.196 0.52 0.196 0.717 0l2.864-2.807c0.199-0.195 0.198-0.514 0-0.71-0.197-0.196-0.517-0.196-0.716 0zM10 0.4c-5.302 0-9.6 4.298-9.6 9.6 0 5.303 4.298 9.6 9.6 9.6s9.6-4.297 9.6-9.6c0-5.302-4.298-9.6-9.6-9.6zM10 18.354c-4.615 0-8.354-3.74-8.354-8.354s3.739-8.354 8.354-8.354c4.613 0 8.354 3.74 8.354 8.354s-3.741 8.354-8.354 8.354z"></path>
</symbol>
<symbol id="icon-chevron-with-circle-left" viewBox="0 0 20 20">
<title>chevron-with-circle-left</title>
<path d="M11.302 6.776c-0.196-0.197-0.515-0.197-0.71 0l-2.807 2.865c-0.196 0.199-0.196 0.52 0 0.717l2.807 2.864c0.195 0.199 0.514 0.198 0.71 0 0.196-0.197 0.196-0.518 0-0.717l-2.302-2.505 2.302-2.506c0.196-0.198 0.196-0.518 0-0.718zM10 0.4c-5.302 0-9.6 4.298-9.6 9.6 0 5.303 4.298 9.6 9.6 9.6s9.6-4.297 9.6-9.6c0-5.302-4.298-9.6-9.6-9.6zM10 18.354c-4.615 0-8.354-3.74-8.354-8.354s3.739-8.354 8.354-8.354c4.613 0 8.354 3.74 8.354 8.354s-3.741 8.354-8.354 8.354z"></path>
</symbol>
<symbol id="icon-chevron-with-circle-right" viewBox="0 0 20 20">
<title>chevron-with-circle-right</title>
<path d="M11 10l-2.302-2.506c-0.196-0.198-0.196-0.519 0-0.718 0.196-0.197 0.515-0.197 0.71 0l2.807 2.864c0.196 0.199 0.196 0.52 0 0.717l-2.807 2.864c-0.195 0.199-0.514 0.198-0.71 0-0.196-0.197-0.196-0.518 0-0.717l2.302-2.504zM10 0.4c5.302 0 9.6 4.298 9.6 9.6 0 5.303-4.298 9.6-9.6 9.6s-9.6-4.297-9.6-9.6c0-5.302 4.298-9.6 9.6-9.6zM10 18.354c4.613 0 8.354-3.74 8.354-8.354s-3.741-8.354-8.354-8.354c-4.615 0-8.354 3.74-8.354 8.354s3.739 8.354 8.354 8.354z"></path>
</symbol>
<symbol id="icon-chevron-with-circle-up" viewBox="0 0 20 20">
<title>chevron-with-circle-up</title>
<path d="M10.359 7.785c-0.199-0.196-0.52-0.196-0.717 0l-2.864 2.807c-0.199 0.195-0.198 0.514 0 0.71 0.197 0.196 0.518 0.196 0.717 0l2.505-2.302 2.506 2.302c0.198 0.196 0.518 0.196 0.718 0 0.197-0.196 0.197-0.515 0-0.71l-2.865-2.807zM10 0.4c-5.302 0-9.6 4.298-9.6 9.6 0 5.303 4.298 9.6 9.6 9.6s9.6-4.297 9.6-9.6c0-5.302-4.298-9.6-9.6-9.6zM10 18.354c-4.615 0-8.354-3.74-8.354-8.354s3.739-8.354 8.354-8.354c4.613 0 8.354 3.74 8.354 8.354s-3.741 8.354-8.354 8.354z"></path>
</symbol>
<symbol id="icon-check" viewBox="0 0 20 20">
<title>check</title>
<path d="M8.294 16.998c-0.435 0-0.847-0.203-1.111-0.553l-3.573-4.721c-0.465-0.613-0.344-1.486 0.27-1.951 0.615-0.467 1.488-0.344 1.953 0.27l2.351 3.104 5.911-9.492c0.407-0.652 1.267-0.852 1.921-0.445s0.854 1.266 0.446 1.92l-6.984 11.21c-0.242 0.391-0.661 0.635-1.12 0.656-0.022 0.002-0.042 0.002-0.064 0.002z"></path>
</symbol>
<symbol id="icon-cross" viewBox="0 0 20 20">
<title>cross</title>
<path d="M14.348 14.849c-0.469 0.469-1.229 0.469-1.697 0l-2.651-3.030-2.651 3.029c-0.469 0.469-1.229 0.469-1.697 0-0.469-0.469-0.469-1.229 0-1.697l2.758-3.15-2.759-3.152c-0.469-0.469-0.469-1.228 0-1.697s1.228-0.469 1.697 0l2.652 3.031 2.651-3.031c0.469-0.469 1.228-0.469 1.697 0s0.469 1.229 0 1.697l-2.758 3.152 2.758 3.15c0.469 0.469 0.469 1.229 0 1.698z"></path>
</symbol>
<symbol id="icon-email" viewBox="0 0 20 20">
<title>email</title>
<path d="M14.608 12.172c0 0.84 0.239 1.175 0.864 1.175 1.393 0 2.28-1.775 2.28-4.727 0-4.512-3.288-6.672-7.393-6.672-4.223 0-8.064 2.832-8.064 8.184 0 5.112 3.36 7.896 8.52 7.896 1.752 0 2.928-0.192 4.727-0.792l0.386 1.607c-1.776 0.577-3.674 0.744-5.137 0.744-6.768 0-10.393-3.72-10.393-9.456 0-5.784 4.201-9.72 9.985-9.72 6.024 0 9.215 3.6 9.215 8.016 0 3.744-1.175 6.6-4.871 6.6-1.681 0-2.784-0.672-2.928-2.161-0.432 1.656-1.584 2.161-3.145 2.161-2.088 0-3.84-1.609-3.84-4.848 0-3.264 1.537-5.28 4.297-5.28 1.464 0 2.376 0.576 2.782 1.488l0.697-1.272h2.016v7.057h0.002zM11.657 9.004c0-1.319-0.985-1.872-1.801-1.872-0.888 0-1.871 0.719-1.871 2.832 0 1.68 0.744 2.616 1.871 2.616 0.792 0 1.801-0.504 1.801-1.896v-1.68z"></path>
</symbol>
<symbol id="icon-export" viewBox="0 0 20 20">
<title>export</title>
<path d="M15 15h-13v-9h2.595c0 0 0.689-0.896 2.17-2h-5.765c-0.553 0-1 0.449-1 1v11c0 0.553 0.447 1 1 1h15c0.553 0 1-0.447 1-1v-3.746l-2 1.645v1.101zM13.361 8.050v3.551l6.639-5.201-6.639-4.999v3.131c-8.061 0-8.061 7.968-8.061 7.968 2.282-3.748 3.686-4.45 8.061-4.45z"></path>
</symbol>
<symbol id="icon-folder-video" viewBox="0 0 20 20">
<title>folder-video</title>
<path d="M18.405 2.799c-0.112-0.44-0.656-0.799-1.21-0.799h-14.39c-0.555 0-1.099 0.359-1.21 0.799l-0.201 1.201h17.211l-0.2-1.201zM19.412 5h-18.825c-0.342 0-0.609 0.294-0.577 0.635l0.923 11.669c0.038 0.394 0.37 0.696 0.766 0.696h16.601c0.397 0 0.728-0.302 0.766-0.696l0.923-11.669c0.033-0.341-0.235-0.635-0.577-0.635zM8 14v-5l4.383 2.5-4.383 2.5z"></path>
</symbol>
<symbol id="icon-heart-outlined" viewBox="0 0 20 20">
<title>heart-outlined</title>
<path d="M17.19 4.156c-1.672-1.535-4.383-1.535-6.055 0l-1.135 1.041-1.136-1.041c-1.672-1.535-4.382-1.535-6.054 0-1.881 1.726-1.881 4.519 0 6.245l7.19 6.599 7.19-6.599c1.88-1.726 1.88-4.52 0-6.245zM16.124 9.375l-6.124 5.715-6.125-5.715c-0.617-0.567-0.856-1.307-0.856-2.094s0.138-1.433 0.756-1.999c0.545-0.501 1.278-0.777 2.063-0.777s1.517 0.476 2.062 0.978l2.1 1.825 2.099-1.826c0.546-0.502 1.278-0.978 2.063-0.978s1.518 0.276 2.063 0.777c0.618 0.566 0.755 1.212 0.755 1.999s-0.238 1.528-0.856 2.095z"></path>
</symbol>
<symbol id="icon-heart" viewBox="0 0 20 20">
<title>heart</title>
<path d="M17.19 4.155c-1.672-1.534-4.383-1.534-6.055 0l-1.135 1.042-1.136-1.042c-1.672-1.534-4.382-1.534-6.054 0-1.881 1.727-1.881 4.52 0 6.246l7.19 6.599 7.19-6.599c1.88-1.726 1.88-4.52 0-6.246z"></path>
</symbol>
<symbol id="icon-home" viewBox="0 0 20 20">
<title>home</title>
<path d="M18.672 11h-1.672v6c0 0.445-0.194 1-1 1h-4v-6h-4v6h-4c-0.806 0-1-0.555-1-1v-6h-1.672c-0.598 0-0.47-0.324-0.060-0.748l8.024-8.032c0.195-0.202 0.451-0.302 0.708-0.312 0.257 0.010 0.513 0.109 0.708 0.312l8.023 8.031c0.411 0.425 0.539 0.749-0.059 0.749z"></path>
</symbol>
<symbol id="icon-location-pin" viewBox="0 0 20 20">
<title>location-pin</title>
<path d="M10 2.009c-2.762 0-5 2.229-5 4.99 0 4.774 5 11 5 11s5-6.227 5-11c0-2.76-2.238-4.99-5-4.99zM10 9.76c-1.492 0-2.7-1.209-2.7-2.7s1.208-2.7 2.7-2.7c1.49 0 2.699 1.209 2.699 2.7s-1.209 2.7-2.699 2.7z"></path>
</symbol>
<symbol id="icon-mail" viewBox="0 0 20 20">
<title>mail</title>
<path d="M1.574 5.286c0.488 0.262 7.248 3.894 7.5 4.029s0.578 0.199 0.906 0.199c0.328 0 0.654-0.064 0.906-0.199s7.012-3.767 7.5-4.029c0.489-0.263 0.951-1.286 0.054-1.286h-16.919c-0.897 0-0.435 1.023 0.053 1.286zM18.613 7.489c-0.555 0.289-7.387 3.849-7.727 4.027s-0.578 0.199-0.906 0.199-0.566-0.021-0.906-0.199-7.133-3.739-7.688-4.028c-0.39-0.204-0.386 0.035-0.386 0.219s0 7.293 0 7.293c0 0.42 0.566 1 1 1h16c0.434 0 1-0.58 1-1 0 0 0-7.108 0-7.292s0.004-0.423-0.387-0.219z"></path>
</symbol>
<symbol id="icon-mask" viewBox="0 0 20 20">
<title>mask</title>
<path d="M19.581 5.84c-0.043-0.469-0.462-0.803-0.92-0.73-1.742 0.278-5.826 1.89-8.661 1.89s-6.919-1.612-8.661-1.89c-0.458-0.073-0.876 0.26-0.92 0.729-0.142 1.532-0.419 5.611-0.419 6.229 0 0.83 3.472 2.732 6 2.732 2.452 0 2.95-2.732 4-2.732s1.548 2.732 4 2.732c2.528 0 6-1.902 6-2.732 0-0.618-0.277-4.697-0.419-6.228zM7.66 10.72c-0.353 0.318-1.335 1.070-2.531 0.835s-1.919-1.323-2.166-1.758c-0.060-0.106-0.041-0.24 0.044-0.317 0.353-0.318 1.335-1.070 2.532-0.835s1.919 1.323 2.166 1.758c0.059 0.106 0.040 0.24-0.045 0.317zM17.037 9.797c-0.246 0.436-0.969 1.523-2.166 1.758s-2.179-0.517-2.531-0.835c-0.086-0.077-0.104-0.211-0.045-0.317 0.246-0.436 0.969-1.523 2.166-1.758s2.179 0.517 2.531 0.835c0.086 0.077 0.105 0.211 0.045 0.317z"></path>
</symbol>
<symbol id="icon-minus" viewBox="0 0 20 20">
<title>minus</title>
<path d="M16 10c0 0.553-0.048 1-0.601 1h-10.798c-0.552 0-0.601-0.447-0.601-1s0.049-1 0.601-1h10.799c0.552 0 0.6 0.447 0.6 1z"></path>
</symbol>
<symbol id="icon-plus" viewBox="0 0 20 20">
<title>plus</title>
<path d="M16 10c0 0.553-0.048 1-0.601 1h-4.399v4.399c0 0.552-0.447 0.601-1 0.601s-1-0.049-1-0.601v-4.399h-4.399c-0.552 0-0.601-0.447-0.601-1s0.049-1 0.601-1h4.399v-4.399c0-0.553 0.447-0.601 1-0.601s1 0.048 1 0.601v4.399h4.399c0.553 0 0.601 0.447 0.601 1z"></path>
</symbol>
<symbol id="icon-star-outlined" viewBox="0 0 20 20">
<title>star-outlined</title>
<path d="M18.8 8.022h-6.413l-2.387-6.722-2.389 6.722h-6.412l5.232 3.947-1.871 6.929 5.44-4.154 5.438 4.154-1.869-6.929 5.231-3.947zM10 12.783l-3.014 2.5 1.243-3.562-2.851-2.3 3.522 0.101 1.1-4.040 1.099 4.040 3.521-0.101-2.851 2.3 1.243 3.562-3.012-2.5z"></path>
</symbol>
<symbol id="icon-star" viewBox="0 0 20 20">
<title>star</title>
<path d="M10 1.3l2.388 6.722h6.412l-5.232 3.948 1.871 6.928-5.439-4.154-5.438 4.154 1.87-6.928-5.233-3.948h6.412l2.389-6.722z"></path>
</symbol>
<symbol id="icon-ticket" viewBox="0 0 20 20">
<title>ticket</title>
<path d="M4.906 11.541l3.551 3.553 6.518-6.518-3.553-3.551-6.516 6.516zM19.104 6.664l-1.511-1.512c-0.289 0.156-0.618 0.246-0.969 0.246-1.118 0-2.024-0.906-2.024-2.023 0-0.352 0.089-0.682 0.246-0.969l-1.511-1.512c-0.394-0.393-1.038-0.393-1.432 0l-11.010 11.010c-0.393 0.392-0.393 1.037 0 1.432l1.512 1.51c0.289-0.156 0.618-0.246 0.97-0.246 1.117 0 2.023 0.906 2.023 2.025 0 0.35-0.089 0.68-0.246 0.969l1.512 1.51c0.394 0.394 1.037 0.394 1.432 0l11.008-11.008c0.394-0.395 0.394-1.039 0-1.432zM8.457 16.719l-5.176-5.178 8.142-8.141 5.176 5.176-8.142 8.143z"></path>
</symbol>
<symbol id="icon-video" viewBox="0 0 20 20">
<title>video</title>
<path d="M20 5v-1.201c0-0.442-0.357-0.799-0.799-0.799h-18.4c-0.443 0-0.801 0.357-0.801 0.799v1.201h2v2h-2v2h2v2h-2v2h2v2h-2v1.199c0 0.442 0.358 0.801 0.801 0.801h18.4c0.442 0 0.799-0.359 0.799-0.801v-1.199h-2v-2h2v-2h-2v-2h2v-2h-2v-2h2zM8 13v-6l5 3-5 3z"></path>
</symbol>
<symbol id="icon-dribbble-with-circle" viewBox="0 0 20 20">
<title>dribbble-with-circle</title>
<path d="M10.26 9.982c0.033-0.012 0.068-0.021 0.103-0.031-0.083-0.185-0.175-0.377-0.279-0.584-1.88 0.557-3.68 0.562-4.001 0.557-0.003 0.025-0.003 0.051-0.003 0.076 0 0.945 0.34 1.853 0.958 2.566 0.206-0.332 1.298-1.961 3.222-2.584zM7.623 13.113c0.689 0.528 1.512 0.807 2.377 0.807 0.517 0 1.019-0.1 1.494-0.295-0.066-0.381-0.295-1.541-0.822-2.922-2.121 0.75-2.922 2.162-3.049 2.41zM12.555 7.027c-0.711-0.611-1.617-0.947-2.555-0.947-0.284 0-0.569 0.031-0.85 0.094 0.205 0.275 0.832 1.146 1.421 2.223 1.283-0.493 1.863-1.204 1.984-1.37zM9.705 8.664c-0.608-1.072-1.241-1.955-1.415-2.191-1.067 0.517-1.852 1.506-2.113 2.658h0.017c0.406 0 1.849-0.033 3.511-0.467zM11.514 10.496c0.465 1.293 0.679 2.367 0.74 2.711 0.852-0.6 1.434-1.521 1.609-2.543-0.174-0.053-0.802-0.221-1.592-0.221-0.258 0-0.513 0.018-0.757 0.053zM10 0.4c-5.302 0-9.6 4.298-9.6 9.6s4.298 9.6 9.6 9.6 9.6-4.298 9.6-9.6-4.298-9.6-9.6-9.6zM10 14.697c-2.592 0-4.699-2.107-4.699-4.697 0-2.592 2.107-4.699 4.699-4.699 2.591 0 4.698 2.108 4.698 4.699s-2.107 4.697-4.698 4.697zM10.922 9.074c0.087 0.18 0.168 0.357 0.242 0.531 0.023 0.057 0.048 0.113 0.071 0.17 0.277-0.033 0.573-0.049 0.882-0.049 0.854 0 1.563 0.125 1.801 0.172-0.022-0.85-0.323-1.676-0.852-2.34-0.16 0.206-0.818 0.963-2.144 1.516z"></path>
</symbol>
<symbol id="icon-github-with-circle" viewBox="0 0 20 20">
<title>github-with-circle</title>
<path d="M10.015 9.949c0 0-0.010 0-0.015 0h-0.015c-1.191 0-2.24-0.303-2.861 0.268-0.371 0.342-0.527 0.754-0.527 1.197 0 1.852 1.483 2.080 3.389 2.080h0.029c1.905 0 3.389-0.229 3.389-2.080 0-0.443-0.156-0.856-0.527-1.197-0.622-0.571-1.671-0.268-2.862-0.268zM8.393 12.48c-0.363 0-0.656-0.408-0.656-0.91s0.293-0.908 0.656-0.908c0.363 0 0.657 0.406 0.657 0.908s-0.293 0.91-0.657 0.91zM11.606 12.48c-0.363 0-0.657-0.408-0.657-0.91s0.294-0.908 0.657-0.908c0.362 0 0.656 0.406 0.656 0.908s-0.293 0.91-0.656 0.91zM10 0.4c-5.302 0-9.6 4.298-9.6 9.6s4.298 9.6 9.6 9.6 9.6-4.298 9.6-9.6-4.298-9.6-9.6-9.6zM10.876 13.939c-0.172 0-0.514 0-0.876 0.002-0.362-0.002-0.704-0.002-0.876-0.002-0.76 0-3.772-0.059-3.772-3.689 0-0.834 0.286-1.445 0.755-1.955-0.074-0.184-0.078-1.232 0.32-2.236 0 0 0.916 0.1 2.301 1.051 0.289-0.081 0.781-0.122 1.272-0.122s0.982 0.041 1.273 0.121c1.385-0.951 2.301-1.051 2.301-1.051 0.398 1.004 0.395 2.053 0.32 2.236 0.469 0.51 0.755 1.121 0.755 1.955-0.001 3.632-3.013 3.69-3.773 3.69z"></path>
</symbol>
<symbol id="icon-instagram-with-circle" viewBox="0 0 20 20">
<title>instagram-with-circle</title>
<path d="M13 10c0 1.657-1.343 3-3 3s-3-1.343-3-3c0-0.171 0.018-0.338 0.049-0.5h-1.049v3.997c0 0.278 0.225 0.503 0.503 0.503h6.995c0.277 0 0.502-0.225 0.502-0.503v-3.997h-1.049c0.031 0.162 0.049 0.329 0.049 0.5zM10 12c1.104 0 2-0.896 2-2s-0.896-2-2-2-2 0.896-2 2 0.896 2 2 2zM12.4 7.9h1.199c0.166 0 0.301-0.135 0.301-0.3v-1.199c0-0.166-0.135-0.301-0.301-0.301h-1.199c-0.166 0-0.301 0.135-0.301 0.301v1.199c0.001 0.165 0.136 0.3 0.301 0.3zM10 0.4c-5.302 0-9.6 4.298-9.6 9.6s4.298 9.6 9.6 9.6c5.302 0 9.6-4.298 9.6-9.6s-4.298-9.6-9.6-9.6zM15 13.889c0 0.611-0.5 1.111-1.111 1.111h-7.778c-0.611 0-1.111-0.5-1.111-1.111v-7.778c0-0.611 0.5-1.111 1.111-1.111h7.778c0.611 0 1.111 0.5 1.111 1.111v7.778z"></path>
</symbol>
<symbol id="icon-linkedin-with-circle" viewBox="0 0 20 20">
<title>linkedin-with-circle</title>
<path d="M10 0.4c-5.302 0-9.6 4.298-9.6 9.6s4.298 9.6 9.6 9.6 9.6-4.298 9.6-9.6-4.298-9.6-9.6-9.6zM7.65 13.979h-1.944v-6.256h1.944v6.256zM6.666 6.955c-0.614 0-1.011-0.435-1.011-0.973 0-0.549 0.409-0.971 1.036-0.971s1.011 0.422 1.023 0.971c0 0.538-0.396 0.973-1.048 0.973zM14.75 13.979h-1.944v-3.467c0-0.807-0.282-1.355-0.985-1.355-0.537 0-0.856 0.371-0.997 0.728-0.052 0.127-0.065 0.307-0.065 0.486v3.607h-1.945v-4.26c0-0.781-0.025-1.434-0.051-1.996h1.689l0.089 0.869h0.039c0.256-0.408 0.883-1.010 1.932-1.010 1.279 0 2.238 0.857 2.238 2.699v3.699z"></path>
</symbol>
<symbol id="icon-twitter-with-circle" viewBox="0 0 20 20">
<title>twitter-with-circle</title>
<path d="M10 0.4c-5.302 0-9.6 4.298-9.6 9.6s4.298 9.6 9.6 9.6 9.6-4.298 9.6-9.6-4.298-9.6-9.6-9.6zM13.905 8.264c0.004 0.082 0.005 0.164 0.005 0.244 0 2.5-1.901 5.381-5.379 5.381-1.068 0-2.062-0.312-2.898-0.85 0.147 0.018 0.298 0.025 0.451 0.025 0.886 0 1.701-0.301 2.348-0.809-0.827-0.016-1.525-0.562-1.766-1.312 0.115 0.021 0.233 0.033 0.355 0.033 0.172 0 0.34-0.023 0.498-0.066-0.865-0.174-1.517-0.938-1.517-1.854v-0.023c0.255 0.141 0.547 0.227 0.857 0.237-0.508-0.34-0.841-0.918-0.841-1.575 0-0.346 0.093-0.672 0.256-0.951 0.933 1.144 2.325 1.896 3.897 1.977-0.033-0.139-0.049-0.283-0.049-0.432 0-1.043 0.846-1.891 1.891-1.891 0.543 0 1.035 0.23 1.38 0.598 0.431-0.086 0.835-0.242 1.2-0.459-0.141 0.441-0.44 0.812-0.831 1.047 0.383-0.047 0.747-0.148 1.086-0.299-0.253 0.379-0.574 0.713-0.943 0.979z"></path>
</symbol>
</defs>
</svg>
